HIERARCHY
ROOT Hips
{
	OFFSET 0.00 0.00 0.00
	CHANNELS 6 Xposition Yposition Zposition Xrotation Yrotation Zrotation
	JOINT Spine
	{
		OFFSET 0.00000 7.50895 0.00000
		CHANNELS 3 Xrotation Yrotation Zrotation
		JOINT Head
		{
			OFFSET 0.00000 13.86115 0.00000
			CHANNELS 3 Xrotation Yrotation Zrotation
			End Site
			{
				OFFSET 0.00000 4.52755 0.00000
			}
		}
		JOINT LeftShoulder
		{
			OFFSET 0.00000 8.20478 0.00000
			CHANNELS 3 Xrotation Yrotation Zrotation
			JOINT LeftArm
			{
				OFFSET 6.63596 0.00000 0.00000
				CHANNELS 3 Xrotation Yrotation Zrotation
				JOINT LeftForeArm
				{
					OFFSET 10.27422 0.00000 0.00000
					CHANNELS 3 Yrotation Zrotation Xrotation
					JOINT LeftHand
					{
						OFFSET 8.52215 0.00000 0.00000
						CHANNELS 3 Xrotation Yrotation Zrotation
						JOINT LeftHandThumb1
						{
							OFFSET 0.00000 0.00000 0.00000
							CHANNELS 3 Xrotation Zrotation Yrotation
							End Site
							{
								OFFSET 0.00000 0.00000 3.93700
							}
						}
						End Site
						{
							OFFSET 3.93700 0.00000 0.00000
						}
					}
				}
			}
		}
		JOINT RightShoulder
		{
			OFFSET 0.00000 8.20478 0.00000
			CHANNELS 3 Xrotation Yrotation Zrotation
			JOINT RightArm
			{
				OFFSET -6.63596 0.00000 0.00000
				CHANNELS 3 Xrotation Yrotation Zrotation
				JOINT RightForeArm
				{
					OFFSET -10.27422 0.00000 0.00000
					CHANNELS 3 Yrotation Zrotation Xrotation
					JOINT RightHand
					{
						OFFSET -8.52215 0.00000 0.00000
						CHANNELS 3 Xrotation Yrotation Zrotation
						JOINT RightHandThumb1
						{
							OFFSET 0.00000 0.00000 0.00000
							CHANNELS 3 Xrotation Zrotation Yrotation
							End Site
							{
								OFFSET 0.00000 0.00000 3.93700
							}
						}
						End Site
						{
							OFFSET -3.93700 0.00000 0.00000
						}
					}
				}
			}
		}
	}
	JOINT LeftUpLeg
	{
		OFFSET 3.00056 0.00000 0.00000
		CHANNELS 3 Xrotation Yrotation Zrotation
		JOINT LeftLeg
		{
			OFFSET 0.00000 -16.49085 0.00000
			CHANNELS 3 Xrotation Yrotation Zrotation
			JOINT LeftFoot
			{
				OFFSET 0.00000 -14.55658 0.00000
				CHANNELS 3 Xrotation Yrotation Zrotation
				JOINT LeftToeBase
				{
					OFFSET 0.00000 -1.25038 4.66650
					CHANNELS 3 Xrotation Yrotation Zrotation
					End Site
					{
						OFFSET 0.00000 0.00000 2.95275
					}
				}
			}
		}
	}
	JOINT RightUpLeg
	{
		OFFSET -3.00056 0.00000 0.00000
		CHANNELS 3 Xrotation Yrotation Zrotation
		JOINT RightLeg
		{
			OFFSET 0.00000 -16.49085 0.00000
			CHANNELS 3 Xrotation Yrotation Zrotation
			JOINT RightFoot
			{
				OFFSET 0.00000 -14.55658 0.00000
				CHANNELS 3 Xrotation Yrotation Zrotation
				JOINT RightToeBase
				{
					OFFSET 0.00000 -1.25038 4.66650
					CHANNELS 3 Xrotation Yrotation Zrotation
					End Site
					{
						OFFSET 0.00000 0.00000 2.95275
					}
				}
			}
		}
	}
}
MOTION
Frames: 11
Frame Time: 0.008333
 -11.8086 32.7842 -4.2505 12.5581 3.9620 -2.0641 -12.9752 3.5450 1.2756 -6.1378 -4.3496 7.0714 15.2870 19.2023 22.3837 -28.0517 -1.9453 -30.5002 -18.7766 -0.0000 8.1683 -4.2576 30.5121 8.3417 33.1476 -0.0000 26.2537 -22.0698 -8.9297 -31.5283 -10.4162 -30.5371 32.3899 30.1474 0.0000 -8.1046 -4.5093 -8.6142 -27.7684 32.8623 0.0000 -24.3270 -10.1042 3.0246 2.4641 1.2185 0.0000 -0.0000 -9.3602 10.7353 -10.7229 5.6891 -0.0000 -0.0000 -11.0897 -6.6129 0.3622 5.3843 -0.0000 -0.0000 -11.0379 -8.6068 -8.7212 1.2023 0.0000 0.0000
 -11.8071 32.7846 -4.2577 12.5917 3.9826 -2.0372 -12.9627 3.4942 1.2453 -6.1411 -4.3372 7.0343 15.4320 19.2501 22.1459 -27.9458 -2.1346 -30.9063 -18.9135 -0.0000 8.0030 -4.1943 30.2828 8.2745 33.1476 -0.0000 26.2537 -21.9218 -9.0984 -31.3158 -10.1115 -30.9125 32.9822 31.2574 0.0000 -8.1318 -4.4920 -8.5507 -27.8510 32.8623 0.0000 -24.3270 -10.1440 3.0448 2.4297 1.2022 0.0000 -0.0000 -9.3081 10.7019 -10.7698 5.6502 0.0000 -0.0000 -11.1489 -6.5985 0.3202 5.4269 0.0000 -0.0000 -11.0581 -8.5735 -8.8144 1.2237 0.0000 0.0000
 -11.8059 32.7850 -4.2659 12.6108 3.9973 -2.0326 -12.9306 3.4529 1.2482 -6.1314 -4.3340 6.9730 15.6232 19.2547 21.9016 -27.7881 -2.3051 -31.3282 -19.1032 -0.0000 7.8344 -4.0605 30.2247 8.0269 33.1476 -0.0000 26.2537 -21.7584 -9.2974 -31.0777 -9.8476 -31.2714 33.5770 32.4503 0.0000 -8.1997 -4.4335 -8.5592 -27.5172 32.8623 0.0000 -24.3270 -10.1735 3.0506 2.4187 1.1908 -0.0000 0.0000 -9.2855 10.6802 -10.7786 5.6803 -0.0000 -0.0000 -11.2117 -6.6375 0.3011 5.4923 0.0000 -0.0000 -11.0605 -8.5343 -8.8087 1.1464 -0.0000 0.0000
 -11.8028 32.7854 -4.2743 12.6538 4.0230 -2.0178 -12.9363 3.4112 1.2381 -6.1110 -4.3747 6.8866 15.8017 19.2506 21.7278 -27.6390 -2.3873 -31.8680 -19.3785 -0.0000 7.7092 -3.9266 30.0879 7.7962 33.1476 -0.0000 26.2537 -21.5989 -9.5044 -30.8443 -9.4460 -31.5922 34.2176 33.6614 0.0000 -8.3112 -4.3339 -8.2626 -27.8047 32.8623 0.0000 -24.3270 -10.2256 3.0462 2.3906 1.1721 -0.0000 -0.0000 -9.2413 10.6585 -10.8149 5.6331 0.0000 0.0000 -11.2712 -6.5954 0.2755 5.4991 0.0000 -0.0000 -11.0753 -8.6004 -8.8588 1.1963 0.0000 0.0000
 -11.7995 32.7854 -4.2808 12.6769 4.0295 -2.0173 -12.9275 3.3580 1.2617 -6.0693 -4.3572 6.7961 15.9427 19.2466 21.5496 -27.3680 -2.5526 -32.4353 -19.5870 -0.0000 7.5176 -3.7362 30.0603 7.4274 33.1476 -0.0000 26.2537 -21.3909 -9.7027 -30.5792 -9.0134 -31.8095 34.8821 34.8467 0.0000 -8.3150 -4.2877 -8.1086 -27.9926 32.8623 0.0000 -24.3270 -10.2554 3.0690 2.3800 1.1616 0.0000 -0.0000 -9.2392 10.6220 -10.7753 5.6854 0.0000 0.0000 -11.3351 -6.6273 0.2589 5.5625 0.0000 -0.0000 -11.0866 -8.5540 -8.8606 1.2124 0.0000 0.0000
 -11.7962 32.7857 -4.2912 12.7331 4.0074 -2.0124 -12.9479 3.3396 1.2845 -6.0389 -4.3516 6.6833 16.0819 19.2629 21.3539 -27.1229 -2.7649 -33.0094 -19.7492 -0.0000 7.1720 -3.5016 29.7833 7.0228 33.1476 -0.0000 26.2537 -21.2448 -9.9424 -30.3150 -8.4677 -31.8566 35.5759 35.9392 0.0000 -8.5484 -4.2540 -8.0446 -27.9919 32.8623 0.0000 -24.3270 -10.3213 3.1008 2.3674 1.1496 0.0000 0.0000 -9.2226 10.6266 -10.7893 5.7072 -0.0000 -0.0000 -11.4224 -6.5308 0.2517 5.5759 -0.0000 0.0000 -11.0755 -8.6520 -8.8471 1.1899 -0.0000 0.0000
 -11.7951 32.7861 -4.2958 12.7535 4.0481 -2.0205 -12.9395 3.2585 1.2973 -5.9720 -4.3179 6.6266 16.2775 19.2069 21.1679 -26.7771 -2.8875 -33.5807 -19.9905 -0.0000 6.7853 -3.2657 29.5267 6.6042 33.1476 -0.0000 26.2537 -21.0909 -10.1802 -29.9933 -7.9141 -31.8704 36.2370 37.0656 0.0000 -8.7180 -4.2671 -8.0599 -28.0199 32.8623 0.0000 -24.3270 -10.3416 3.0618 2.3680 1.1231 -0.0000 0.0000 -9.1739 10.6037 -10.8293 5.6062 0.0000 -0.0000 -11.4830 -6.5883 0.2464 5.6514 0.0000 0.0000 -11.1008 -8.6598 -8.8565 1.1895 0.0000 -0.0000
 -11.7927 32.7859 -4.3040 12.7926 4.0537 -2.0226 -12.9404 3.1933 1.3320 -5.9512 -4.2426 6.5079 16.5194 19.2514 20.9676 -26.6686 -3.0110 -34.2876 -20.1394 -0.0000 6.4211 -3.1023 29.1708 6.3450 33.1476 -0.0000 26.2537 -20.9538 -10.3637 -29.7691 -7.4078 -32.1092 36.9974 38.3049 0.0000 -8.7885 -4.0171 -7.8419 -27.2354 32.8623 0.0000 -24.3270 -10.3892 3.0575 2.3597 1.1049 0.0000 0.0000 -9.1618 10.5948 -10.8241 5.6690 -0.0000 0.0000 -11.5612 -6.5617 0.2385 5.6941 0.0000 -0.0000 -11.1013 -8.7126 -8.8654 1.1505 0.0000 0.0000
 -11.7893 32.7860 -4.3125 12.8141 4.0518 -2.0206 -12.9240 3.1174 1.3644 -5.9015 -4.1515 6.4031 16.6527 19.1909 20.7460 -26.3809 -3.1712 -34.8708 -20.1761 -0.0000 5.8883 -2.6470 28.8464 5.4736 33.1476 -0.0000 26.2537 -20.7951 -10.5232 -29.5048 -6.8294 -32.2348 37.7763 39.5043 0.0000 -8.9151 -3.9794 -7.8100 -27.1093 32.8623 0.0000 -24.3270 -10.4160 3.0561 2.3489 1.0888 0.0000 0.0000 -9.1382 10.5974 -10.8285 5.6043 -0.0000 0.0000 -11.6226 -6.5435 0.2271 5.7412 -0.0000 -0.0000 -11.1074 -8.7197 -8.8775 1.1604 0.0000 -0.0000
 -11.7860 32.7867 -4.3199 12.8140 4.0560 -2.0211 -12.8856 3.0144 1.3919 -5.8381 -4.0396 6.3451 16.7374 19.1435 20.5891 -26.3365 -3.1188 -35.6295 -20.2039 -0.0000 5.9094 -2.1646 28.5205 4.5262 33.1476 -0.0000 26.2537 -20.6194 -10.6536 -29.2210 -6.2699 -32.4305 38.5490 40.6218 0.0000 -9.5069 -3.5467 -7.1077 -26.6072 32.8623 0.0000 -24.3270 -10.4160 3.0328 2.3392 1.0653 -0.0000 -0.0000 -9.1325 10.6174 -10.7648 5.6896 0.0000 -0.0000 -11.6458 -6.5901 0.2190 5.7745 0.0000 0.0000 -11.1066 -8.6709 -8.8997 1.1874 -0.0000 -0.0000
 -11.7826 32.7878 -4.3280 12.8244 4.0471 -2.0213 -12.8594 2.9243 1.4228 -5.7813 -3.9301 6.2789 16.7564 19.0048 20.4417 -25.9882 -3.0629 -36.3117 -20.3629 -0.0000 5.7522 -1.5588 28.3296 3.2820 33.1476 -0.0000 26.2537 -20.4173 -10.8485 -28.9022 -5.6737 -32.4254 39.3676 41.7991 0.0000 -9.2576 -3.6319 -7.2566 -26.6800 32.8623 0.0000 -24.3270 -10.4323 3.0428 2.3317 1.0512 0.0000 -0.0000 -9.1130 10.6252 -10.7726 5.6987 0.0000 0.0000 -11.6922 -6.5871 0.2105 5.8135 -0.0000 -0.0000 -11.0973 -8.6705 -8.9107 1.2058 -0.0000 0.0000
